HIERARCHY
ROOT Hips
{
	OFFSET -0.001795 -0.223333 0.028219
	CHANNELS 6 Xposition Yposition Zposition Zrotation Yrotation Xrotation 
	JOINT LeftUpLeg
	{
		OFFSET 0.069520 -0.091406 -0.006815
		CHANNELS 3 Zrotation Yrotation Xrotation
		JOINT LeftLeg
		{
			OFFSET 0.034277 -0.375199 -0.004496
			CHANNELS 3 Zrotation Yrotation Xrotation
			JOINT LeftFoot
			{
				OFFSET -0.013596 -0.397961 -0.043693
				CHANNELS 3 Zrotation Yrotation Xrotation
				JOINT LeftToe
				{
					OFFSET 0.026358 -0.055791 0.119288
					CHANNELS 3 Zrotation Yrotation Xrotation
					End Site
					{
						OFFSET 0.000000 0.000000 0.000000
					}
				}
			}
		}
	}
	JOINT RightUpLeg
	{
		OFFSET -0.067670 -0.090522 -0.004320
		CHANNELS 3 Zrotation Yrotation Xrotation
		JOINT RightLeg
		{
			OFFSET -0.038290 -0.382569 -0.008850
			CHANNELS 3 Zrotation Yrotation Xrotation
			JOINT RightFoot
			{
				OFFSET 0.015774 -0.398415 -0.042312
				CHANNELS 3 Zrotation Yrotation Xrotation
				JOINT RightToe
				{
					OFFSET -0.025372 -0.048144 0.123348
					CHANNELS 3 Zrotation Yrotation Xrotation
					End Site
					{
						OFFSET 0.000000 0.000000 0.000000
					}
				}
			}
		}
	}
	JOINT Spine
	{
		OFFSET -0.002533 0.108963 -0.026696
		CHANNELS 3 Zrotation Yrotation Xrotation
		JOINT Spine1
		{
			OFFSET 0.005487 0.135180 0.001092
			CHANNELS 3 Zrotation Yrotation Xrotation
			JOINT Spine2
			{
				OFFSET 0.001457 0.052922 0.025425
				CHANNELS 3 Zrotation Yrotation Xrotation
				JOINT Neck
				{
					OFFSET -0.002778 0.213870 -0.042857
					CHANNELS 3 Zrotation Yrotation Xrotation
					JOINT Head
					{
						OFFSET 0.005152 0.064970 0.051349
						CHANNELS 3 Zrotation Yrotation Xrotation
						End Site
						{
							OFFSET 0.000000 0.000000 0.000000
						}
					}
				}
				JOINT LeftShoulder
				{
					OFFSET 0.078845 0.121749 -0.034090
					CHANNELS 3 Zrotation Yrotation Xrotation
					JOINT LeftArm
					{
						OFFSET 0.090977 0.030469 -0.008868
						CHANNELS 3 Zrotation Yrotation Xrotation
						JOINT LeftForeArm
						{
							OFFSET 0.259612 -0.012772 -0.027456
							CHANNELS 3 Zrotation Yrotation Xrotation
							JOINT LeftHand
							{
								OFFSET 0.249234 0.008986 -0.001171
								CHANNELS 3 Zrotation Yrotation Xrotation
								End Site
								{
									OFFSET 0.000000 0.000000 0.000000
								}
							}
						}
					}
				}
				JOINT RightShoulder
				{
					OFFSET -0.081759 0.118833 -0.038615
					CHANNELS 3 Zrotation Yrotation Xrotation
					JOINT RightArm
					{
						OFFSET -0.096012 0.032551 -0.009143
						CHANNELS 3 Zrotation Yrotation Xrotation
						JOINT RightForeArm
						{
							OFFSET -0.253742 -0.013329 -0.021401
							CHANNELS 3 Zrotation Yrotation Xrotation
							JOINT RightHand
							{
								OFFSET -0.255298 0.007772 -0.005559
								CHANNELS 3 Zrotation Yrotation Xrotation
								End Site
								{
									OFFSET 0.000000 0.000000 0.000000
								}
							}
						}
					}
				}
			}
		}
	}
}
MOTION
Frames: 13
Frame Time: 0.050000
0.000000 0.916609 0.000000 0.996295 -13.622107 0.865627 -7.784412 -3.067470 -23.111644 -0.456475 -0.019031 5.494036 2.563562 8.285258 20.287530 0.000000 0.000000 0.000000 3.394586 -1.321263 11.773174 0.309909 0.845625 14.466166 -0.318963 -2.165445 2.193310 0.000000 0.000000 0.000000 -0.648150 -0.110112 3.629852 -2.228723 0.968971 -2.510528 3.236713 10.821683 7.054288 4.008657 -0.162103 -23.553730 0.000000 0.000000 0.000000 -22.529475 -3.027751 -1.228721 -48.176719 -3.119969 -4.462302 -103.442147 -55.309050 70.207915 0.000000 0.000000 0.000000 17.423759 9.650293 4.210214 52.275717 14.433365 0.780497 85.452246 57.831167 58.017351 0.000000 0.000000 0.000000 
-0.010044 0.918858 0.048423 0.527445 -10.541539 0.709598 -8.871149 -3.044920 -20.216789 0.653072 -0.273335 7.062542 1.668318 6.620527 14.984692 0.000000 0.000000 0.000000 3.128961 -1.365771 11.849910 3.094977 0.512794 20.663508 1.055475 -2.184955 7.779874 0.000000 0.000000 0.000000 -1.458890 -0.043040 2.318006 -0.971299 0.429140 -2.080615 2.969131 10.175238 7.621949 3.847534 -0.000013 -23.033361 0.000000 0.000000 0.000000 -25.084566 -1.480035 -2.807657 -44.843629 -3.406961 -3.937865 -103.514685 -52.252113 66.163154 0.000000 0.000000 0.000000 16.075218 6.366725 2.711076 54.293130 10.953027 -0.760047 92.402363 52.965483 59.564741 0.000000 0.000000 0.000000 
-0.018605 0.925890 0.094969 1.508679 -12.179686 -0.385878 -10.615579 -2.905785 -17.404167 1.972274 -0.569940 9.424169 2.818525 7.878807 12.687599 0.000000 0.000000 0.000000 -1.571307 -0.460746 8.464177 6.468823 0.220584 31.403071 5.227937 1.302756 16.097657 0.000000 0.000000 0.000000 -1.656314 -0.035594 2.139002 -2.198491 0.990568 -1.790988 2.704693 10.357909 7.155826 3.022159 0.240870 -21.681072 0.000000 0.000000 0.000000 -23.715778 -1.222151 -2.577775 -45.974743 -3.131365 -4.196697 -101.456519 -53.810480 66.258927 0.000000 0.000000 0.000000 16.921798 6.662283 2.713750 52.930623 8.541045 -1.791184 89.215441 53.915173 57.306745 0.000000 0.000000 0.000000 
-0.025910 0.929466 0.136682 1.948700 -11.561386 -0.800245 -11.906648 -2.533633 -13.944117 2.829688 -0.746292 9.106101 2.751701 7.505095 10.261027 0.000000 0.000000 0.000000 -3.210045 -0.038501 3.383051 8.629441 -0.149615 41.852500 4.968988 -1.575395 21.921135 0.000000 0.000000 0.000000 -2.461575 -0.008721 1.971325 -2.176836 1.056484 0.259671 2.441753 7.791145 5.099139 3.168873 -0.142569 -20.994725 0.000000 0.000000 0.000000 -24.352096 -0.178022 -2.681628 -44.953411 -2.921929 -4.188467 -104.675962 -53.006391 69.293044 0.000000 0.000000 0.000000 16.522357 7.322396 2.505060 51.858025 6.084361 -2.541591 93.758294 53.466511 59.268204 0.000000 0.000000 0.000000 
-0.032747 0.932977 0.173962 1.823765 -11.055037 -1.749480 -12.215057 -1.793292 -9.425348 3.239584 -0.777368 7.561115 2.589540 7.007276 8.398576 0.000000 0.000000 0.000000 -4.809864 0.297230 -1.569113 10.627641 -0.914692 49.473988 1.940610 -6.294707 22.785818 0.000000 0.000000 0.000000 -1.897815 -0.049962 2.738309 -2.277884 1.086176 -0.257789 1.785514 5.713929 5.643763 2.771586 -0.059621 -21.832281 0.000000 0.000000 0.000000 -25.095172 -0.772109 -1.816354 -43.352760 -4.025229 -3.892723 -107.443610 -54.088523 74.316363 0.000000 0.000000 0.000000 16.982669 7.428297 2.154595 50.327879 4.251853 -3.215036 93.430333 53.274519 57.829941 0.000000 0.000000 0.000000 
-0.038869 0.936123 0.208160 1.443986 -10.073269 -2.868796 -11.989009 -1.121891 -5.742125 3.344188 -0.805175 7.549669 2.205095 6.170659 6.979040 0.000000 0.000000 0.000000 -5.455536 0.564981 -6.750015 10.894359 -1.217771 53.075921 -2.957965 -12.183122 16.273001 0.000000 0.000000 0.000000 -0.789367 -0.117825 3.694775 -2.206528 1.047366 -0.431726 1.165609 3.411500 6.443547 1.808360 0.247413 -21.798989 0.000000 0.000000 0.000000 -25.399668 -1.057453 -1.065242 -42.966170 -5.182966 -3.733997 -110.074710 -55.010250 79.167070 0.000000 0.000000 0.000000 17.888279 7.565234 1.791179 47.445225 2.479090 -3.675400 97.028144 54.191298 61.069286 0.000000 0.000000 0.000000 
-0.044594 0.938538 0.240081 0.673594 -8.409498 -3.725193 -11.715790 -0.404479 -2.000324 4.402223 -0.974622 6.806930 1.496781 4.720117 5.750390 0.000000 0.000000 0.000000 -5.303293 0.815761 -11.182696 10.797035 -1.691604 52.953885 -6.392527 -16.689072 6.881926 0.000000 0.000000 0.000000 -0.077444 -0.187776 4.991225 -1.631487 0.772090 -0.571789 0.989799 1.375835 6.812201 1.720367 0.193699 -22.354112 0.000000 0.000000 0.000000 -24.842297 -1.006868 -0.688420 -43.566821 -6.469636 -3.483581 -110.660029 -55.387473 80.896742 0.000000 0.000000 0.000000 16.999399 6.544112 1.054677 45.660411 1.368725 -3.908886 98.848474 52.812723 60.435927 0.000000 0.000000 0.000000 
-0.050272 0.940026 0.270392 0.073392 -6.847500 -4.407721 -11.034314 0.219619 1.242351 4.750996 -1.008259 6.256772 0.822100 3.276688 4.787360 0.000000 0.000000 0.000000 -4.580903 1.127780 -15.171300 9.106711 -1.233699 48.761993 -7.003498 -17.579186 3.916498 0.000000 0.000000 0.000000 0.604186 -0.255059 5.975250 -1.358150 0.655682 0.292754 1.141270 -0.602506 5.971929 0.148956 0.839276 -20.842333 0.000000 0.000000 0.000000 -24.542681 -1.387281 -0.126594 -43.967663 -8.118507 -2.974948 -110.249161 -56.435899 82.199632 0.000000 0.000000 0.000000 16.057224 6.492013 0.821178 44.592269 0.841846 -3.867978 100.786054 52.844422 61.415462 0.000000 0.000000 0.000000 
-0.056238 0.940301 0.300337 -0.616751 -5.345889 -4.852269 -9.820497 0.752229 4.239143 4.644183 -0.948402 5.589918 0.175023 1.773451 3.785382 0.000000 0.000000 0.000000 -3.835476 1.466469 -18.725487 6.593435 -0.425213 41.695997 -6.948749 -17.180998 1.629538 0.000000 0.000000 0.000000 1.098434 -0.321070 6.921148 -0.752744 0.358572 0.272954 0.871794 -1.773443 6.154370 0.203316 0.810119 -21.655952 0.000000 0.000000 0.000000 -23.961732 -1.778757 0.231314 -45.149766 -9.192823 -2.682514 -110.953077 -57.725927 84.758494 0.000000 0.000000 0.000000 15.181943 5.795894 0.505726 43.842911 0.142116 -4.061049 102.408445 51.335241 60.866918 0.000000 0.000000 0.000000 
-0.062829 0.938441 0.331165 -0.960452 -3.880962 -5.644395 -9.000183 1.271652 7.417542 4.835384 -0.957807 5.255601 -0.328763 0.381888 2.605873 0.000000 0.000000 0.000000 -3.828260 1.528546 -20.112833 4.945523 -0.183900 31.064260 -6.008975 -15.123464 2.132010 0.000000 0.000000 0.000000 1.246893 -0.367841 7.733746 -0.456516 0.211550 0.517057 1.200147 -2.869456 6.364879 -0.872699 1.358859 -21.749198 0.000000 0.000000 0.000000 -23.789865 -2.406330 0.729565 -45.019227 -10.443802 -2.287403 -113.028210 -58.410949 88.101143 0.000000 0.000000 0.000000 13.981524 6.275216 0.790536 44.086861 0.654146 -3.954793 103.382382 52.986199 63.536488 0.000000 0.000000 0.000000 
-0.070129 0.932961 0.363314 -1.011827 -1.918597 -5.523382 -7.964608 1.595372 9.809705 4.509353 -0.862360 4.702530 -0.873297 -1.598889 0.592493 0.000000 0.000000 0.000000 -4.130682 1.503576 -21.419530 3.781509 -0.172958 19.617073 -5.245243 -13.733135 4.082749 0.000000 0.000000 0.000000 0.915114 -0.353310 7.629767 -0.204239 0.071250 1.357558 1.195876 -3.289349 5.934514 -0.773379 1.413065 -22.591931 0.000000 0.000000 0.000000 -23.313754 -3.312363 1.080231 -46.383910 -11.833209 -1.695668 -114.643941 -59.776092 91.275572 0.000000 0.000000 0.000000 14.154325 5.662026 0.589939 44.335809 0.720518 -3.947656 106.153076 52.382788 65.733493 0.000000 0.000000 0.000000 
-0.078497 0.926071 0.397554 -0.893703 -0.411440 -5.634367 -7.227208 1.841996 11.915659 4.551860 -0.911499 5.307426 -1.052502 -3.024711 -1.406426 0.000000 0.000000 0.000000 -5.680133 1.149105 -21.208003 3.899488 -0.372651 7.942556 -4.120565 -11.898272 7.337903 0.000000 0.000000 0.000000 0.792295 -0.352848 7.637373 -0.356557 0.163793 0.475163 1.230002 -3.641657 7.062294 -1.832136 2.018559 -22.411176 0.000000 0.000000 0.000000 -22.693404 -4.156457 1.509928 -47.095420 -13.202198 -1.236853 -117.350042 -59.134669 93.718039 0.000000 0.000000 0.000000 13.522243 6.232244 1.027115 45.417629 1.657362 -3.868783 110.358742 53.988138 72.349878 0.000000 0.000000 0.000000 
-0.088307 0.918667 0.434604 -0.865801 0.492454 -4.826416 -6.272523 1.908703 13.079793 4.461004 -0.953950 6.103902 -1.024609 -3.904905 -3.015435 0.000000 0.000000 0.000000 -6.417835 1.055026 -22.775196 2.871730 -0.315725 -0.186248 -3.351520 -11.396640 13.016355 0.000000 0.000000 0.000000 1.126367 -0.323907 6.583125 -0.432954 0.170922 1.676890 1.013694 -3.500501 5.448219 -1.263426 1.744815 -21.152117 0.000000 0.000000 0.000000 -22.024750 -4.258274 1.319550 -48.763237 -13.495348 -0.873027 -119.694344 -57.902759 94.612194 0.000000 0.000000 0.000000 14.899943 6.643100 1.200842 45.412623 3.191569 -3.172593 113.012760 53.968385 75.402604 0.000000 0.000000 0.000000 
